<svg width="25" height="27" viewBox="0 0 25 27" fill="none" xmlns="http://www.w3.org/2000/svg">
<path d="M19.3406 10.0439V6.69141H17.313H12.2382H7.90646H5.98828" stroke="white" stroke-width="0.8" stroke-linecap="round" stroke-linejoin="round"/>
<path d="M4.18544 6.69141H1V17.4401C1 18.4942 1.85828 19.3525 2.91242 19.3525H10.3489" stroke="white" stroke-width="0.8" stroke-linecap="round" stroke-linejoin="round"/>
<path d="M1 6.69117L4.95156 1.76036C5.3375 1.28225 5.91929 1 6.53564 1H14.0355C14.6634 1 15.2567 1.29377 15.6369 1.79492L19.3465 6.69117" stroke="white" stroke-width="0.8" stroke-linecap="round" stroke-linejoin="round"/>
<path d="M7.87207 6.97363V12.4238C7.87207 13.0749 8.40211 13.6049 9.05314 13.6049H11.1157C11.761 13.6049 12.2852 13.0806 12.2852 12.4354V11.3926" stroke="white" stroke-width="0.8" stroke-linecap="round" stroke-linejoin="round"/>
<path d="M12.2789 9.33524V7.37674C12.2789 6.81799 12.2098 6.265 12.0658 5.7293L10.8389 1.00586" stroke="white" stroke-width="0.8" stroke-linecap="round" stroke-linejoin="round"/>
<path d="M7.87207 9.91117V7.29024C7.87207 6.78909 7.93543 6.29371 8.06216 5.80408L9.31214 1" stroke="white" stroke-width="0.8" stroke-linecap="round" stroke-linejoin="round"/>
<path d="M11.7432 19.3525H10.4814" stroke="white" stroke-width="0.8" stroke-linecap="round" stroke-linejoin="round"/>
<path d="M18.3271 15.5732H24.2671" stroke="white" stroke-width="0.8" stroke-linecap="round" stroke-linejoin="round"/>
<path d="M18.3271 20.4863H24.2671" stroke="white" stroke-width="0.8" stroke-linecap="round" stroke-linejoin="round"/>
<path d="M18.3271 25.4004H24.2671" stroke="white" stroke-width="0.8" stroke-linecap="round" stroke-linejoin="round"/>
<path d="M14.3853 15.4177L14.8289 15.8671L15.8947 14.542" stroke="white" stroke-width="0.8" stroke-linecap="round" stroke-linejoin="round"/>
<path d="M14.3853 20.4128L14.8289 20.8622L15.8947 19.5371" stroke="white" stroke-width="0.8" stroke-linecap="round" stroke-linejoin="round"/>
<path d="M14.3848 25.4012L14.8284 25.8506L15.8942 24.5312" stroke="white" stroke-width="0.8" stroke-linecap="round" stroke-linejoin="round"/>
</svg>
