<svg width="139" height="25" viewBox="0 0 139 25" fill="none" xmlns="http://www.w3.org/2000/svg">
<path fill-rule="evenodd" clip-rule="evenodd" d="M105.86 5.7075C105.884 5.61687 105.884 5.50532 105.86 5.41469L104.357 0.38112C104.288 0.158025 104.083 0 103.833 0C103.673 0 103.536 0.0673931 103.423 0.158025L99.7574 3.95295C99.5523 4.17837 99.5523 4.51534 99.7809 4.71752C99.8493 4.78491 99.9389 4.82906 100.031 4.8523L101.238 5.14511C100.417 7.19015 99.4816 9.1887 98.4113 11.0989L97.8644 12.1331C96.4265 14.5825 94.7645 16.8971 92.94 19.0769C92.848 19.2117 92.7561 19.3232 92.6429 19.458L92.6194 19.4812C91.9357 20.1784 94.0998 21.6611 94.5335 21.2567C95.104 20.606 95.6509 19.9321 96.1742 19.2349L96.219 19.1908C99.3873 15.1216 101.917 10.5621 103.81 5.77489L105.177 6.11186C105.495 6.17925 105.792 6.00031 105.86 5.7075ZM22.0927 8.02238C21.8876 7.07887 21.112 6.33755 20.155 6.15629C19.6764 5.99826 19.1531 5.93087 18.6274 5.95411H10.6502C9.87463 5.93087 9.12264 6.0215 8.37065 6.22368C7.73181 6.35847 7.14012 6.65128 6.63801 7.07655L6.36456 7.34612C5.45227 6.71635 4.38204 6.35847 3.28824 6.35847H0.666889C0.369865 6.33523 0.0964145 6.56065 0.0964145 6.85346C0.0800395 6.8696 0.086414 6.89583 0.0918339 6.91814C0.0942165 6.92795 0.0964145 6.93699 0.0964145 6.94409V7.93175C0.0964145 8.74046 0.598526 8.7637 0.643316 8.7637H3.03836C4.33726 8.7637 4.95252 9.30285 5.20475 9.88615C5.34148 10.1325 5.40984 10.3811 5.43341 10.6042V15.1428C5.43341 18.1081 6.11704 19.5698 8.37301 20.1531C9.125 20.3553 9.90056 20.4459 10.6761 20.4227H21.2299C21.435 20.4459 21.6165 20.2879 21.6401 20.0857C21.6636 20.0625 21.6636 20.0183 21.6401 19.9951V18.4451C21.6849 18.2429 21.5269 18.0407 21.3218 18.0175H10.992C8.84919 18.0175 8.39422 17.4342 8.39422 15.9492V14.9151H20.9305C21.2959 14.9592 21.6589 14.8477 21.956 14.6455C22.2058 14.3527 22.3213 13.9716 22.2742 13.5904V9.38883C22.2978 8.91708 22.2294 8.44533 22.0927 8.01773V8.02238ZM19.4265 11.887C19.4265 12.1334 19.2898 12.2681 19.0164 12.2681H8.39422V10.6739C8.37065 10.495 8.37065 10.3137 8.39422 10.1348C8.46259 9.75368 8.62288 9.39348 8.89633 9.07975C9.5116 8.69863 10.2636 8.51737 10.9944 8.58476V8.608H17.9697C18.3799 8.56385 18.7901 8.65215 19.1083 8.90081C19.3582 9.19362 19.4501 9.5515 19.4265 9.93495V11.887ZM26.1495 16.5397V15.0338L26.1518 15.0431C26.1518 14.7503 26.1754 14.4598 26.2438 14.167C26.2674 13.9648 26.3805 13.7626 26.5172 13.6046C26.6775 13.4489 26.8826 13.335 27.0877 13.2909C27.3824 13.2235 27.703 13.177 28.0212 13.2002H34.7231C34.8127 13.177 34.881 13.1329 34.9046 13.0422C34.9494 12.9957 34.9494 12.9516 34.9494 12.8842V11.4015C34.9258 11.2435 34.7891 11.1529 34.6524 11.1761H27.769C27.7218 11.1529 27.6535 11.1529 27.6087 11.1529C26.9934 11.1529 26.4017 11.2435 25.8313 11.3783C25.7181 11.3992 25.6026 11.4225 25.4894 11.4899C25.2396 11.5572 25.0109 11.6688 24.8058 11.8268C24.7139 11.8733 24.6455 11.9175 24.5772 11.9848C24.2589 12.2544 24.0302 12.6355 23.9171 13.0399C23.7568 13.5349 23.6884 14.074 23.712 14.5899V17.0161C23.6884 17.5343 23.7568 18.0735 23.9171 18.5894C24.0302 18.9937 24.2589 19.3516 24.5772 19.6444C24.9425 19.9349 25.3763 20.1371 25.8313 20.2277C26.4701 20.3625 27.1089 20.4299 27.769 20.4067H34.6524C34.676 20.4299 34.6972 20.4299 34.7208 20.4067C34.881 20.4067 34.973 20.2486 34.9494 20.1138V18.6986C34.973 18.6754 34.973 18.6544 34.9494 18.6312C34.9258 18.4732 34.7891 18.3825 34.6524 18.4058H28.0189C27.7006 18.4058 27.4036 18.3825 27.0854 18.3151C26.6516 18.2245 26.3098 17.8666 26.2414 17.439C26.1731 17.1462 26.1495 16.8325 26.1495 16.5397ZM48.5581 11.9775C48.8763 12.2471 49.1286 12.6282 49.2417 13.0325V13.0349C49.3549 13.4834 49.4232 13.9551 49.4468 14.4269V17.011C49.4468 17.5502 49.3785 18.0684 49.2417 18.5843C49.105 18.9887 48.8763 19.3466 48.5581 19.6394C48.1927 19.9299 47.759 20.132 47.304 20.2227C46.6652 20.3575 46.0287 20.4249 45.3898 20.4249H40.5337C39.8949 20.4249 39.2349 20.3575 38.596 20.2227C38.1387 20.1344 37.7073 19.9322 37.3419 19.6394C37.0237 19.3489 36.795 18.9887 36.6819 18.5843C36.5216 18.0661 36.4532 17.5502 36.4768 17.011V14.5849C36.4556 14.1364 36.5003 13.6646 36.6371 13.237C36.6371 13.1696 36.6583 13.1023 36.6819 13.0349C36.7502 12.7653 36.8869 12.4957 37.092 12.2703C37.1368 12.1564 37.2288 12.0681 37.3419 11.9775C37.7073 11.6638 38.141 11.4616 38.596 11.3709C39.2349 11.2129 39.8737 11.1455 40.5337 11.1688H45.5266C46.1183 11.1688 46.7335 11.2362 47.304 11.3709C47.7825 11.4616 48.1927 11.6638 48.5581 11.9775ZM47.007 16.5835V14.9869L47.0093 14.9893C47.0093 14.8545 47.0093 14.6964 46.9858 14.5617C46.9858 14.4128 46.9664 14.2831 46.9441 14.1339L46.941 14.1131C46.9174 14.0225 46.8938 13.9551 46.849 13.8877C46.8019 13.7529 46.7123 13.6391 46.6204 13.5275C46.4601 13.3927 46.2786 13.2789 46.0499 13.2347C45.7529 13.1673 45.4346 13.1441 45.1376 13.1441H40.7836C40.463 13.1441 40.1684 13.1673 39.8713 13.2347C39.645 13.2812 39.4612 13.3927 39.2796 13.5275C39.2796 13.5377 39.2741 13.5429 39.2683 13.5483C39.2623 13.5539 39.2561 13.5598 39.2561 13.5717C39.1193 13.7297 39.051 13.9319 39.0062 14.1108C38.9378 14.4036 38.9143 14.6941 38.9143 14.9869V16.5835C38.9143 16.8995 38.9378 17.19 39.0062 17.4828C39.051 17.685 39.1429 17.8872 39.2796 18.0452C39.4612 18.2009 39.6427 18.3148 39.8713 18.3589C40.1684 18.4263 40.4654 18.4495 40.7836 18.4495H45.1376C45.4346 18.4495 45.7529 18.4263 46.0499 18.3589C46.2786 18.3148 46.4601 18.2032 46.6204 18.0452C46.7783 17.8872 46.8938 17.7082 46.9386 17.4828L46.9428 17.4557C46.9862 17.1719 47.0298 16.8875 47.007 16.5835ZM86.3722 14.5826V20.0438C86.3958 20.2227 86.2803 20.3807 86.0988 20.4249H84.3213C84.1398 20.4481 83.9795 20.3134 83.956 20.1321C83.9324 20.1089 83.9324 20.0647 83.956 20.0415V15.1659C83.956 14.8522 83.9324 14.5594 83.8876 14.2666C83.8428 14.0644 83.7509 13.8622 83.6141 13.7042C83.4774 13.5462 83.2959 13.4346 83.0908 13.3905C82.7938 13.3231 82.4991 13.2998 82.1785 13.2998H79.1706V20.0415C79.1706 20.2878 79.0574 20.4226 78.784 20.4226H77.1197C76.9382 20.4458 76.7543 20.311 76.7331 20.1298V13.2998H73.8147C73.5177 13.2998 73.223 13.3231 72.926 13.3905C72.6973 13.4346 72.4922 13.5485 72.3343 13.7042C72.1976 13.8622 72.0844 14.0644 72.0609 14.2666C71.9925 14.5594 71.9689 14.8499 71.9689 15.1659V20.0415C71.9925 20.2204 71.8558 20.3784 71.6955 20.4226H69.918C69.6446 20.4226 69.5314 20.2878 69.5314 20.0415V14.5803C69.5079 14.0644 69.5762 13.5252 69.7365 13.0303C69.8497 12.6259 70.0783 12.2448 70.3966 11.9752C70.762 11.6615 71.1721 11.4593 71.6507 11.3687C72.2895 11.2106 72.926 11.1432 73.5884 11.1665H82.4779C83.0696 11.1665 83.6636 11.2339 84.2341 11.3687C84.7127 11.4593 85.1464 11.6615 85.5094 11.9752C85.8277 12.2448 86.0563 12.6259 86.1695 13.0303C86.3298 13.5252 86.3982 14.0644 86.3746 14.5803L86.3722 14.5826ZM94.0856 13.9385C94.0644 13.7921 93.9253 13.6899 93.7768 13.7108H88.6307C88.6048 13.7061 88.5789 13.7061 88.5529 13.7108C88.4044 13.7317 88.2983 13.8688 88.3219 14.0152V15.2283C88.3172 15.2562 88.3172 15.2794 88.3219 15.3073C88.3431 15.4537 88.4822 15.556 88.6307 15.5327H93.7768C93.8027 15.5374 93.8286 15.5374 93.8546 15.5327C94.0055 15.5118 94.1092 15.3747 94.0856 15.2283V14.0152C94.0903 13.9897 94.0903 13.9641 94.0856 13.9385ZM123.639 13.0325C123.526 12.6282 123.274 12.2471 122.956 11.9775C122.59 11.6638 122.159 11.4616 121.702 11.3709C121.063 11.2129 120.424 11.1455 119.764 11.1688H114.976C114.337 11.1455 113.677 11.2129 113.038 11.3709C112.583 11.4616 112.15 11.6847 111.784 11.9775C111.466 12.2703 111.237 12.6282 111.124 13.0325C110.988 13.5484 110.896 14.0667 110.919 14.5826V23.7736C110.919 24.0199 111.056 24.1338 111.306 24.1338H112.994C113.017 24.157 113.038 24.157 113.086 24.1338C113.267 24.1106 113.383 23.9549 113.359 23.7736V20.4249H119.764C120.424 20.4249 121.063 20.3575 121.702 20.2227C122.157 20.132 122.59 19.9299 122.956 19.6394C123.274 19.3466 123.503 18.9887 123.639 18.5843C123.639 18.5727 123.645 18.5617 123.651 18.5506C123.657 18.5396 123.663 18.5286 123.663 18.5169C123.776 18.0219 123.844 17.5293 123.844 17.011V14.5849C123.844 14.069 123.776 13.5298 123.639 13.0349V13.0325ZM113.359 16.9878L113.383 15.0334C113.36 14.7514 113.403 14.4715 113.446 14.1897L113.451 14.1573C113.496 13.9551 113.588 13.7529 113.748 13.5949C113.908 13.4369 114.113 13.3253 114.318 13.2812C114.615 13.2138 114.934 13.1696 115.231 13.1906H119.54C119.858 13.1673 120.155 13.2138 120.473 13.2812C120.679 13.3253 120.884 13.4392 121.02 13.5949C121.181 13.7529 121.294 13.9551 121.339 14.1573C121.407 14.4501 121.431 14.7406 121.431 15.0334V16.5393C121.431 16.8321 121.407 17.1458 121.339 17.4386C121.294 17.6408 121.178 17.843 121.02 18.001C120.884 18.1591 120.679 18.2706 120.473 18.3148C120.155 18.3821 119.858 18.4054 119.54 18.4054H113.364V16.9901L113.359 16.9878ZM137.43 11.9773C137.772 12.2469 138 12.628 138.113 13.0324V13.0347C138.274 13.5297 138.342 14.0688 138.319 14.5847V17.0109C138.342 17.55 138.274 18.0683 138.113 18.5842C138 18.9885 137.748 19.3464 137.43 19.6392C137.088 19.9297 136.654 20.1319 136.199 20.2225C135.561 20.3573 134.9 20.4247 134.262 20.4247H127.857V23.7734C127.878 23.9547 127.741 24.1104 127.56 24.1336C127.536 24.1569 127.513 24.1569 127.468 24.1336H125.804C125.53 24.1336 125.393 24.0198 125.393 23.7734V14.5824V14.5823C125.393 14.4917 125.393 14.3802 125.417 14.2896C125.417 13.8643 125.485 13.46 125.598 13.0324C125.735 12.628 125.964 12.2701 126.282 11.9773C126.647 11.6845 127.058 11.4614 127.513 11.3708C128.151 11.2128 128.814 11.1454 129.474 11.1686H134.262C134.719 11.1477 135.197 11.1919 135.652 11.2592C135.822 11.2788 135.994 11.3207 136.164 11.3621L136.199 11.3708C136.654 11.4614 137.088 11.6636 137.43 11.9773ZM135.513 17.9986C135.674 17.8405 135.766 17.6384 135.81 17.4362L135.815 17.4385L135.883 17.0341C135.907 16.8761 135.907 16.6972 135.907 16.5391V15.0333C135.907 14.7404 135.883 14.45 135.815 14.1572C135.792 13.955 135.678 13.7528 135.518 13.5948C135.358 13.4391 135.153 13.3252 134.948 13.281C134.651 13.2136 134.332 13.1672 134.035 13.1904H129.726C129.589 13.1904 129.453 13.1904 129.316 13.2136H129.292C129.184 13.2136 129.077 13.2338 128.969 13.2541C128.917 13.2638 128.866 13.2735 128.814 13.281C128.654 13.3043 128.517 13.3717 128.38 13.4832C128.333 13.5041 128.265 13.5506 128.22 13.5948C128.083 13.7528 127.991 13.955 127.946 14.1572C127.878 14.45 127.854 14.7404 127.854 15.0333V18.4029H134.031C134.328 18.4029 134.646 18.3797 134.943 18.3123C135.148 18.2681 135.353 18.1566 135.513 17.9986ZM20.1103 23.1673C20.1103 23.9086 19.495 24.5152 18.743 24.5152C17.991 24.5152 17.3757 23.9086 17.3757 23.1673C17.3757 22.426 17.991 21.8194 18.743 21.8194C19.495 21.8194 20.1103 22.426 20.1103 23.1673ZM9.07786 24.5152C9.82985 24.5152 10.4451 23.9086 10.4451 23.1673C10.4451 22.426 9.82985 21.8194 9.07786 21.8194C8.32587 21.8194 7.71061 22.426 7.71061 23.1673C7.71061 23.9086 8.32587 24.5152 9.07786 24.5152ZM67.8413 20.0437V14.5826H67.8366C67.8602 14.0667 67.7918 13.5275 67.6315 13.0325C67.5419 12.6282 67.2897 12.2471 66.9715 11.9775C66.6084 11.6638 66.1747 11.4616 65.6961 11.3709C65.1257 11.2362 64.5316 11.1688 63.9399 11.1688H55.0504C54.4116 11.1455 53.7515 11.2129 53.1127 11.3709C52.6554 11.4616 52.224 11.6638 51.8586 11.9775C51.5404 12.2471 51.3117 12.6282 51.1985 13.0325C51.0618 13.5275 50.9699 14.0667 50.9935 14.5826V20.0437C50.9935 20.2924 51.1302 20.4039 51.3801 20.4039H53.0679C53.0915 20.4272 53.1363 20.4272 53.1598 20.4039C53.3414 20.3807 53.4569 20.2227 53.4333 20.0437V15.1682C53.4333 14.8521 53.4569 14.5617 53.5252 14.2688C53.5724 14.0667 53.662 13.8622 53.8223 13.7065C53.9826 13.5508 54.1876 13.4369 54.3927 13.3927C54.6898 13.3253 54.9868 13.3021 55.305 13.3021H58.1998V20.132C58.221 20.3133 58.4049 20.4481 58.5864 20.4249H60.2507C60.5242 20.4249 60.6609 20.2901 60.6609 20.0437V13.3021H63.6688C63.9659 13.3021 64.2605 13.3253 64.5575 13.3927C64.7626 13.4369 64.9677 13.5484 65.1045 13.7065C65.2412 13.8645 65.3308 14.0667 65.3543 14.2688C65.3991 14.5617 65.4227 14.8545 65.4227 15.1682V20.1344C65.4463 20.3133 65.6066 20.4481 65.7881 20.4039H67.4759C67.4995 20.4272 67.5443 20.4272 67.5679 20.4039C67.7494 20.3807 67.8649 20.2227 67.8413 20.0437ZM109.554 20.3129C109.531 20.3803 109.441 20.4244 109.305 20.4244H107.138C106.978 20.4244 106.82 20.3338 106.752 20.199L106.25 19.2787L105.658 18.2446L105.545 18.0192H98.4562C98.8663 17.4359 99.3213 16.7829 99.7998 16.0648H104.451L102.24 12.0212C102.673 11.2125 103.128 10.3364 103.562 9.43703C103.675 9.59505 103.767 9.75075 103.859 9.90878L108.305 17.8402L109.081 19.2323L109.514 20.0177C109.583 20.1084 109.583 20.2199 109.559 20.3106L109.554 20.3129Z" fill="url(#paint0_linear_1120_1392)"/>
<path fill-rule="evenodd" clip-rule="evenodd" d="M22.2673 13.5783V11.5124C21.8575 11.4658 21.4518 11.4228 21.0518 11.3804C20.4946 11.3214 19.9483 11.2636 19.4173 11.1986V11.8726C19.4173 12.1189 19.2805 12.2537 19.0071 12.2537H8.38494V10.6595C8.36137 10.4806 8.36137 10.2993 8.38494 10.1204C7.93215 10.086 7.49654 10.0512 7.07545 10.0176L7.07541 10.0176L7.0754 10.0176L7.0754 10.0176C6.41571 9.96495 5.79168 9.91516 5.19312 9.87402C5.32984 10.1204 5.3982 10.3667 5.42178 10.5921V15.1307C5.42178 18.096 6.1054 19.5577 8.36137 20.141C9.11336 20.3432 9.88892 20.4338 10.6645 20.4106H21.2159C21.421 20.4338 21.6025 20.2758 21.6261 20.0736C21.6497 20.0504 21.6497 20.0062 21.6261 19.983V18.4329C21.6732 18.2308 21.5129 18.0286 21.3078 18.0053H10.9827C8.83991 18.0053 8.38494 17.4197 8.38494 15.9371V14.9029H20.9236C21.289 14.9471 21.652 14.8355 21.949 14.6334C22.1989 14.3429 22.3121 13.9594 22.2673 13.5783ZM10.436 23.1501C10.436 23.8915 9.82074 24.498 9.06876 24.498C8.31677 24.498 7.7015 23.8915 7.7015 23.1501C7.7015 22.4088 8.31677 21.8023 9.06876 21.8023C9.82074 21.8023 10.436 22.4088 10.436 23.1501ZM20.1009 23.1501C20.1009 23.8915 19.4857 24.498 18.7337 24.498C17.9817 24.498 17.3664 23.8915 17.3664 23.1501C17.3664 22.4088 17.9817 21.8023 18.7337 21.8023C19.4857 21.8023 20.1009 22.4088 20.1009 23.1501ZM34.9403 18.679C34.9634 18.6563 34.9639 18.6358 34.9418 18.6132C34.9159 18.4585 34.7808 18.3702 34.6456 18.3932H28.0121C27.6939 18.3932 27.3968 18.37 27.0786 18.3026C26.6449 18.2119 26.303 17.8541 26.2347 17.4265C26.1663 17.1337 26.1427 16.8199 26.1427 16.5271V15.0212C26.1427 14.7284 26.1663 14.4379 26.2347 14.1451C26.2583 13.9429 26.3714 13.7408 26.5081 13.5827C26.6684 13.427 26.8735 13.3132 27.0786 13.269C27.3733 13.2016 27.6939 13.1551 28.0121 13.1784H34.714C34.8036 13.1551 34.8719 13.111 34.8955 13.0204C31.2016 12.5486 27.8518 12.1442 24.7967 11.8073C24.7048 11.8538 24.6364 11.8979 24.568 11.9653C24.2498 12.2349 24.0211 12.616 23.908 13.0204C23.7477 13.5153 23.6793 14.0545 23.7029 14.5704V16.9965C23.6793 17.5148 23.7477 18.0539 23.908 18.5698C24.0211 18.9742 24.2498 19.3321 24.568 19.6249C24.9334 19.9154 25.3672 20.1175 25.8221 20.2082C26.461 20.343 27.0998 20.4104 27.7599 20.3871H34.6433C34.6669 20.4104 34.6881 20.4104 34.7116 20.3871C34.8719 20.3871 34.9639 20.2291 34.9403 20.0943V18.679ZM49.4378 16.9938V14.8581C49.0713 14.8095 48.7084 14.7649 48.3496 14.7208C47.8845 14.6636 47.4265 14.6073 46.9768 14.5444C47.0003 14.6792 47.0003 14.8372 47.0003 14.972V16.5685C47.0231 16.8734 46.98 17.1546 46.9367 17.437L46.932 17.4678C46.8872 17.6933 46.774 17.8722 46.6137 18.0302C46.4534 18.1859 46.2719 18.2998 46.0433 18.344C45.7462 18.4113 45.428 18.4346 45.131 18.4346H40.777C40.4564 18.4346 40.1617 18.4113 39.8647 18.344C39.6384 18.2998 39.4545 18.1883 39.273 18.0302C39.1363 17.8722 39.0443 17.67 38.9996 17.4678C38.9312 17.175 38.9076 16.8822 38.9076 16.5685V14.972C38.9076 14.6792 38.9312 14.3887 38.9996 14.0959C39.0443 13.9169 39.1127 13.7147 39.2494 13.5567C38.3371 13.4452 37.472 13.3313 36.6281 13.2198C36.4914 13.6474 36.4442 14.1191 36.4678 14.5676V16.9938C36.4442 17.5329 36.5126 18.0511 36.6729 18.567C36.786 18.9714 37.0147 19.3293 37.3329 19.6221C37.6983 19.9126 38.1321 20.1148 38.587 20.2054C39.2259 20.3402 39.8859 20.4076 40.5247 20.4076H45.3809C46.0197 20.4076 46.6562 20.3402 47.295 20.2054C47.7523 20.1171 48.1837 19.9149 48.5491 19.6221C48.8673 19.3316 49.096 18.9714 49.2327 18.567C49.3695 18.0488 49.4378 17.5329 49.4378 16.9938ZM50.9866 15.0606C51.7834 15.1722 52.6037 15.286 53.4264 15.3976V20.0268C53.45 20.2057 53.3345 20.3638 53.153 20.387C53.1294 20.4102 53.0846 20.4102 53.061 20.387H51.3732C51.1233 20.387 50.9866 20.2755 50.9866 20.0268V15.0606ZM58.7706 16.105L58.7701 16.1049L58.7677 16.1046C58.5773 16.079 58.3852 16.0531 58.1906 16.0274V20.1151C58.2118 20.2964 58.3957 20.4312 58.5772 20.408H60.2415C60.515 20.408 60.6517 20.2732 60.6517 20.0268V16.3411C60.0214 16.2733 59.4051 16.1904 58.7706 16.105ZM65.4157 16.9038C66.2361 17.0153 67.0329 17.106 67.832 17.1733V20.0271C67.8556 20.206 67.7401 20.3641 67.5585 20.3873C67.535 20.4105 67.4902 20.4105 67.4666 20.3873H65.7787C65.5972 20.4315 65.4369 20.2967 65.4134 20.1177V16.9038H65.4157ZM69.5199 17.3525L69.5176 17.3523L69.5199 17.35V17.3525ZM69.5199 17.3525C70.3395 17.4431 71.159 17.5313 71.9574 17.5986V20.0248C71.981 20.2037 71.8443 20.3617 71.684 20.4059H69.9065C69.6331 20.4059 69.5199 20.2711 69.5199 20.0248V17.3525ZM76.7214 18.0261L76.7237 18.0264V20.1153C76.7449 20.2965 76.9288 20.4313 77.1103 20.4081H78.7746C79.0481 20.4081 79.1612 20.2733 79.1612 20.027V18.2515L78.99 18.2371C78.2459 18.1745 77.4848 18.1104 76.7237 18.0264V18.0261H76.7214ZM86.1225 18.7322L86.1224 18.7322C85.4052 18.6906 84.6845 18.6488 83.9467 18.5882V20.0244C83.9232 20.0476 83.9232 20.0918 83.9467 20.115C83.9703 20.2963 84.1306 20.4311 84.3121 20.4078H86.0895C86.2711 20.3637 86.3866 20.2056 86.363 20.0267V18.7462L86.1225 18.7322ZM92.928 19.0599L92.9288 19.06C92.8374 19.1937 92.7459 19.3047 92.6334 19.4387L92.6098 19.462C91.9262 20.1591 94.0902 21.6418 94.5239 21.2374C95.0944 20.5867 95.6413 19.9128 96.1646 19.2156L96.2094 19.1715C95.2645 19.153 94.3012 19.1146 93.3195 19.0755L92.9288 19.06L92.9304 19.0576L92.928 19.0599ZM109.543 20.296C109.566 20.2054 109.566 20.0939 109.498 20.0032L109.064 19.2178C108.152 19.2619 107.195 19.2619 106.238 19.2619L106.74 20.1822C106.808 20.317 106.966 20.4076 107.126 20.4076H109.293C109.429 20.4076 109.519 20.3634 109.543 20.296ZM110.913 19.1955C115.585 19.0839 119.826 18.8352 123.654 18.4983C123.654 18.5099 123.648 18.5209 123.642 18.532C123.636 18.543 123.63 18.5541 123.63 18.5657C123.494 18.97 123.265 19.3302 122.947 19.6207C122.581 19.9135 122.15 20.1157 121.693 20.204C121.054 20.3388 120.415 20.4062 119.755 20.4062H113.35V23.7549C113.374 23.9339 113.258 24.0919 113.077 24.1151C113.032 24.1384 113.008 24.1384 112.985 24.1151H111.297C111.047 24.1151 110.91 24.0036 110.91 23.7549V19.1931L110.913 19.1955ZM138.312 16.9942V16.5899C137.536 16.7479 136.716 16.8827 135.872 17.0175L135.803 17.4218C135.756 17.624 135.667 17.8262 135.506 17.9842C135.346 18.1399 135.141 18.2538 134.936 18.298C134.639 18.3653 134.321 18.3886 134.024 18.3886H127.847V18.0958C127.051 18.1841 126.23 18.2747 125.386 18.3421V23.7568C125.386 24.0055 125.523 24.117 125.796 24.117H127.461C127.508 24.1402 127.529 24.1402 127.553 24.117C127.737 24.0938 127.873 23.9357 127.85 23.7568V20.4081H134.255C134.893 20.4081 135.553 20.3407 136.192 20.2059C136.647 20.1176 137.081 19.9154 137.423 19.6226C137.741 19.3321 137.993 18.9719 138.106 18.5675C138.267 18.0493 138.335 17.5334 138.312 16.9942Z" fill="url(#paint1_linear_1120_1392)"/>
<defs>
<linearGradient id="paint0_linear_1120_1392" x1="74.5" y1="25" x2="63.5" y2="-15.5" gradientUnits="userSpaceOnUse">
<stop stop-color="#B0CBFF"/>
<stop offset="1" stop-color="#6097FF"/>
</linearGradient>
<linearGradient id="paint1_linear_1120_1392" x1="65.4587" y1="2.38354" x2="63.7563" y2="41.1978" gradientUnits="userSpaceOnUse">
<stop stop-color="#88B1FF"/>
<stop offset="1" stop-color="#4871BF"/>
</linearGradient>
</defs>
</svg>
