<svg width="23" height="19" viewBox="0 0 23 19" fill="none" xmlns="http://www.w3.org/2000/svg">
<path fill-rule="evenodd" clip-rule="evenodd" d="M20.069 0.206648C21.0261 0.387912 21.8017 1.12924 22.0067 2.07274V2.06809C22.1435 2.49569 22.2118 2.96744 22.1883 3.43919V7.6408C22.2354 8.02192 22.1199 8.40304 21.87 8.69585C21.573 8.89803 21.21 9.00958 20.8446 8.96542H8.30829V9.99956C8.30829 11.4845 8.76325 12.0678 10.9061 12.0678H21.2359C21.441 12.0911 21.5989 12.2932 21.5541 12.4954V14.0455C21.5777 14.0687 21.5777 14.1129 21.5541 14.1361C21.5306 14.3383 21.349 14.4963 21.144 14.4731H10.5902C9.81462 14.4963 9.03906 14.4057 8.28707 14.2035C6.0311 13.6202 5.34748 12.1585 5.34748 9.19317V4.65459C5.3239 4.4315 5.25554 4.18284 5.11882 3.93651C4.86658 3.35321 4.25132 2.81406 2.95243 2.81406H0.557378C0.512589 2.81406 0.010477 2.79082 0.010477 1.98211V0.99445C0.010477 0.987354 0.00827894 0.978307 0.00589639 0.968501C0.000476509 0.946195 -0.00589794 0.919961 0.010477 0.903818C0.010477 0.611006 0.283928 0.385588 0.580951 0.408827H3.2023C4.29611 0.408827 5.36634 0.766708 6.27862 1.39648L6.55207 1.12691C7.05419 0.701639 7.64588 0.408827 8.28471 0.274041C9.0367 0.0718621 9.78869 -0.0187699 10.5643 0.00446905H18.5415C19.0672 -0.0187699 19.5905 0.0486229 20.069 0.206648ZM18.9304 6.3185C19.2039 6.3185 19.3406 6.18372 19.3406 5.93738V3.98531C19.3642 3.60186 19.2722 3.24398 19.0224 2.95117C18.7041 2.70252 18.2939 2.61421 17.8838 2.65836H10.9084V2.63512C10.1777 2.56773 9.42566 2.74899 8.8104 3.13011C8.53695 3.44384 8.37665 3.80404 8.30829 4.18516C8.28471 4.3641 8.28471 4.54537 8.30829 4.72431V6.3185H18.9304ZM10.359 17.218C10.359 17.9593 9.74375 18.5658 8.99176 18.5658C8.23977 18.5658 7.62451 17.9593 7.62451 17.218C7.62451 16.4767 8.23977 15.8701 8.99176 15.8701C9.74375 15.8701 10.359 16.4767 10.359 17.218ZM20.0245 17.218C20.0245 17.9593 19.4093 18.5658 18.6573 18.5658C17.9053 18.5658 17.29 17.9593 17.29 17.218C17.29 16.4767 17.9053 15.8701 18.6573 15.8701C19.4093 15.8701 20.0245 16.4767 20.0245 17.218Z" fill="url(#paint0_linear_1007_1692)"/>
<path fill-rule="evenodd" clip-rule="evenodd" d="M22.1816 7.62812V5.56218C21.7718 5.51556 21.3661 5.4726 20.9661 5.43024C20.4089 5.37123 19.8626 5.31338 19.3316 5.24845V5.92238C19.3316 6.16871 19.1948 6.3035 18.9214 6.3035H8.29925V4.70931C8.27568 4.53037 8.27568 4.3491 8.29925 4.17016C7.84644 4.13575 7.41081 4.10099 6.98971 4.06739C6.33002 4.01476 5.70599 3.96496 5.10742 3.92383C5.24415 4.17016 5.31251 4.41649 5.33608 4.64191V9.18049C5.33608 12.1458 6.01971 13.6075 8.27568 14.1908C9.02767 14.393 9.80323 14.4836 10.5788 14.4604H21.1302C21.3353 14.4836 21.5168 14.3256 21.5404 14.1234C21.564 14.1002 21.564 14.056 21.5404 14.0328V12.4827C21.5875 12.2806 21.4272 12.0784 21.2221 12.0552H10.897C8.75421 12.0552 8.29925 11.4695 8.29925 9.98688V8.95275H20.8379C21.2033 8.9969 21.5663 8.88535 21.8633 8.68317C22.1132 8.39269 22.2264 8.00924 22.1816 7.62812ZM10.3502 17.2004C10.3502 17.9417 9.73496 18.5483 8.98298 18.5483C8.23099 18.5483 7.61572 17.9417 7.61572 17.2004C7.61572 16.4591 8.23099 15.8525 8.98298 15.8525C9.73496 15.8525 10.3502 16.4591 10.3502 17.2004ZM20.0153 17.2004C20.0153 17.9417 19.4 18.5483 18.648 18.5483C17.896 18.5483 17.2808 17.9417 17.2808 17.2004C17.2808 16.4591 17.896 15.8525 18.648 15.8525C19.4 15.8525 20.0153 16.4591 20.0153 17.2004Z" fill="url(#paint1_linear_1007_1692)"/>
<defs>
<linearGradient id="paint0_linear_1007_1692" x1="11.9497" y1="18.9332" x2="-4.02545" y2="6.46159" gradientUnits="userSpaceOnUse">
<stop stop-color="#B0CBFF"/>
<stop offset="1" stop-color="#6097FF"/>
</linearGradient>
<linearGradient id="paint1_linear_1007_1692" x1="12.8413" y1="-3.56688" x2="0.939839" y2="31.2556" gradientUnits="userSpaceOnUse">
<stop stop-color="#88B1FF"/>
<stop offset="1" stop-color="#4871BF"/>
</linearGradient>
</defs>
</svg>
