<svg width="27" height="18" viewBox="0 0 27 18" fill="none" xmlns="http://www.w3.org/2000/svg">
<path d="M23.3743 4.08181C23.3743 4.08181 21.7665 5.15205 19.89 5.01767C18.0134 4.88329 16.6072 4.26418 16.6072 4.26418C16.6072 4.26418 15.8298 3.81305 14.246 3.75546C12.1391 3.67867 11.2896 4.61453 11.2896 4.61453L9.34111 6.65423C9.23552 6.76462 9.24992 6.93739 9.3699 7.02858C9.59067 7.19655 10.7665 7.49411 11.3568 7.06697C12.811 6.01113 13.1373 5.82395 13.1373 5.82395C13.1373 5.82395 14.15 5.15205 15.1051 5.85755C15.9641 6.49106 20.4131 10.2777 20.4131 10.2777C20.4131 10.2777 21.0418 10.82 20.5763 11.4583C20.1587 12.0246 19.41 12.0294 19.0789 11.8615C18.7477 11.6935 17.0536 9.90336 17.0536 9.90336" stroke="white" stroke-width="0.7" stroke-linecap="round" stroke-linejoin="round"/>
<path d="M19.0022 11.8182C19.0022 11.8182 19.1702 12.4277 18.8871 12.7061C18.6759 12.9125 18.6471 12.9461 18.2344 13.1572C18.0232 13.2628 17.5289 13.2388 17.3129 13.0756C17.0969 12.9125 15.8059 11.5303 15.8059 11.5303" stroke="white" stroke-width="0.7" stroke-linecap="round" stroke-linejoin="round"/>
<path d="M17.308 13.0749C17.308 13.0749 17.4328 13.4876 17.1784 13.766C16.9241 14.0444 16.6025 14.1595 16.6025 14.1595C16.6025 14.1595 16.0938 14.3755 15.6907 13.9676C15.2875 13.5596 14.5676 12.7773 14.5676 12.7773" stroke="white" stroke-width="0.7" stroke-linecap="round" stroke-linejoin="round"/>
<path d="M15.8298 14.165C15.8298 14.165 15.1963 15.1537 13.5214 14.165" stroke="white" stroke-width="0.7" stroke-linecap="round" stroke-linejoin="round"/>
<path d="M4.22034 4.00391L6.16405 4.695C6.16405 4.695 7.37827 5.33811 8.71728 5.20373C10.0563 5.06935 10.0227 4.58942 11.1601 4.7478" stroke="white" stroke-width="0.7" stroke-linecap="round" stroke-linejoin="round"/>
<path d="M1.25916 8.33789C1.25916 8.33789 4.50828 8.9234 6.75435 10.2816" stroke="white" stroke-width="0.7" stroke-linecap="round" stroke-linejoin="round"/>
<path d="M8.24218 11.7791C8.103 11.8511 7.93982 11.8943 7.77185 11.8943C7.21033 11.8943 6.75439 11.4383 6.75439 10.8768C6.75439 10.3153 7.21033 9.85938 7.77185 9.85938C8.20378 9.85938 8.56853 10.1281 8.71731 10.5025" stroke="white" stroke-width="0.7" stroke-linecap="round" stroke-linejoin="round"/>
<path d="M12.2255 12.3313C12.3263 12.3025 12.4319 12.2881 12.5423 12.2881C13.1758 12.2881 13.6893 12.8016 13.6893 13.4303C13.6893 14.059 13.1758 14.5726 12.5423 14.5726C11.9759 14.5726 11.5056 14.1598 11.4144 13.6175" stroke="white" stroke-width="0.7" stroke-linecap="round" stroke-linejoin="round"/>
<path d="M8.24207 11.7793C8.24207 12.3504 8.43404 12.8399 8.88037 12.9695C9.20193 13.0607 9.43229 13.0847 9.90742 12.7104" stroke="white" stroke-width="0.7" stroke-linecap="round" stroke-linejoin="round"/>
<path d="M8.71729 10.507C9.01964 10.1711 9.56676 10.0655 9.94111 10.1759C10.3538 10.2958 10.6226 10.7038 10.517 11.1597" stroke="white" stroke-width="0.7" stroke-linecap="round" stroke-linejoin="round"/>
<path d="M9.9123 12.71C9.77312 13.1179 10.0131 13.6074 10.3874 13.7514C10.6706 13.8618 11.1985 13.8954 11.4193 13.617" stroke="white" stroke-width="0.7" stroke-linecap="round" stroke-linejoin="round"/>
<path d="M10.5171 11.1606C10.8914 10.7046 11.3762 10.6902 11.7361 10.8582C12.2688 11.1078 12.4896 11.6837 12.2304 12.3316" stroke="white" stroke-width="0.7" stroke-linecap="round" stroke-linejoin="round"/>
<path d="M13.6893 17.6152C20.6975 17.6152 26.3787 13.8957 26.3787 9.30759C26.3787 4.71943 20.6975 1 13.6893 1C6.68121 1 1 4.71943 1 9.30759C1 13.8957 6.68121 17.6152 13.6893 17.6152Z" stroke="white" stroke-width="0.7" stroke-linecap="round" stroke-linejoin="round"/>
<path d="M26.3019 8.41016C26.3019 8.41016 22.9808 9.07726 20.4132 10.2819" stroke="white" stroke-width="0.7" stroke-linecap="round" stroke-linejoin="round"/>
</svg>
