<svg width="23" height="16" viewBox="0 0 23 16" fill="none" xmlns="http://www.w3.org/2000/svg">
<path d="M23 7.51669C23 3.38348 17.854 0 11.5 0C5.14605 0 0 3.38348 0 7.51669V7.95187C0 12.3506 4.49374 15.9033 11.5 15.9033C18.5063 15.9033 23 12.3506 23 7.95187V7.51669Z" fill="#2D3277"/>
<path d="M22.5896 7.51466C22.5896 11.4058 17.637 14.5719 11.5489 14.5719C5.46084 14.5719 0.507812 11.4058 0.507812 7.51466C0.507812 3.62353 5.46043 0.457031 11.5485 0.457031C17.6366 0.457031 22.5892 3.62313 22.5892 7.51425L22.5896 7.51466Z" fill="#FF288D"/>
<path d="M7.87812 5.29531C7.87812 5.29531 7.75713 5.41635 7.82997 5.5127C7.99912 5.73008 8.53043 5.85113 9.08643 5.73008C9.40045 5.65762 9.83546 5.31919 10.2219 5.00505C10.6569 4.66662 11.0915 4.30431 11.5265 4.18327C11.9854 4.03834 12.2756 4.11081 12.4686 4.15898C12.6859 4.23144 12.9275 4.37637 13.3382 4.66662C14.0872 5.22244 17.1311 7.8813 17.6628 8.34036C18.0735 8.14686 19.958 7.34936 22.5187 6.76926C22.3014 5.41594 21.4799 4.15898 20.2235 3.1441C18.4838 3.86913 16.3339 4.25573 14.2321 3.24085C14.2321 3.24085 13.0966 2.70932 11.9611 2.7332C10.2939 2.78138 9.59347 3.48252 8.82057 4.25573L7.87853 5.2949L7.87812 5.29531Z" fill="white"/>
<path d="M17.542 8.63139C17.5177 8.60711 13.9664 5.51347 13.1692 4.90948C12.7104 4.57105 12.4445 4.4743 12.1786 4.42613C12.0338 4.40184 11.8403 4.42613 11.6955 4.4743C11.3329 4.57105 10.8259 4.90948 10.3909 5.24751C9.93198 5.61023 9.52125 5.94825 9.13439 6.02071C8.62695 6.14175 8.0232 5.99642 7.75734 5.80332C7.63635 5.73086 7.56391 5.63411 7.51576 5.53736C7.41904 5.29568 7.61247 5.10218 7.63675 5.07829L8.60308 4.01483L8.94137 3.6764C8.62736 3.72457 8.33722 3.79744 8.04748 3.8699C7.68491 3.96666 7.34702 4.06341 7.00872 4.06341C6.86385 4.06341 6.09055 3.94237 5.94568 3.89419C5.05179 3.65252 4.27849 3.41084 3.11914 2.87891C1.74209 3.91808 0.799636 5.19933 0.53418 6.62511C0.727607 6.67328 1.0655 6.77003 1.18649 6.79432C4.32705 7.49507 5.29378 8.2205 5.4868 8.36543C5.68023 8.14804 5.94568 8.027 6.2597 8.027C6.59799 8.027 6.91201 8.19621 7.10543 8.46218C7.27458 8.31726 7.54044 8.19621 7.85446 8.19621C7.99933 8.19621 8.14419 8.2205 8.31334 8.26868C8.67591 8.38972 8.84466 8.63139 8.94137 8.84878C9.06236 8.80061 9.20723 8.75203 9.37638 8.75203C9.54553 8.75203 9.71467 8.8002 9.9077 8.87307C10.4876 9.11475 10.5843 9.69486 10.5357 10.13H10.6567C11.3572 10.13 11.9132 10.6859 11.9132 11.387C11.9132 11.6044 11.865 11.7979 11.7683 11.9671C11.9617 12.0639 12.4206 12.3055 12.8556 12.257C13.1939 12.2088 13.3145 12.112 13.3631 12.0396C13.3874 11.9914 13.4355 11.9428 13.3874 11.8946L12.4935 10.9036C12.4935 10.9036 12.3486 10.7587 12.3968 10.7101C12.4449 10.6616 12.5416 10.7344 12.6141 10.7826C13.0729 11.1692 13.6047 11.725 13.6047 11.725C13.6047 11.725 13.6528 11.7975 13.8462 11.8461C14.0154 11.8704 14.3294 11.8461 14.5467 11.6769C14.5949 11.6287 14.6677 11.5801 14.6916 11.5319C14.9089 11.2421 14.6673 10.9518 14.6673 10.9518L13.6285 9.79161C13.6285 9.79161 13.4837 9.64668 13.5318 9.5981C13.58 9.54953 13.6767 9.62239 13.7491 9.67057C14.0874 9.93653 14.5463 10.4199 14.9813 10.8547C15.078 10.9271 15.4645 11.1688 15.9719 10.8304C16.2859 10.613 16.3584 10.3713 16.3345 10.1778C16.3102 9.93613 16.1172 9.74262 16.1172 9.74262L14.7159 8.31645C14.7159 8.31645 14.571 8.1954 14.6191 8.12294C14.6673 8.07477 14.764 8.14723 14.8364 8.1954C15.2953 8.58201 16.5036 9.69405 16.5036 9.69405C16.5279 9.69405 16.9386 10.0082 17.47 9.66976C17.6634 9.54872 17.784 9.37991 17.784 9.16211C17.8083 8.84797 17.5424 8.63058 17.5424 8.63058L17.542 8.63139Z" fill="white"/>
<path d="M10.7043 10.4436C10.487 10.4436 10.2454 10.5646 10.2211 10.5646C10.1968 10.5646 10.2211 10.4679 10.2454 10.4197C10.2697 10.3715 10.5594 9.50116 9.85894 9.18702C9.32762 8.94534 8.98932 9.21131 8.89261 9.33194C8.86833 9.35623 8.84446 9.35623 8.84446 9.33194C8.84446 9.18702 8.77202 8.75184 8.28886 8.60691C7.61227 8.38952 7.20154 8.87288 7.08095 9.04209C7.0328 8.65549 6.71838 8.36523 6.30805 8.36523C5.87305 8.36523 5.53516 8.70366 5.53516 9.13844C5.53516 9.57322 5.87345 9.91165 6.30805 9.91165C6.52536 9.91165 6.6945 9.83918 6.83937 9.69426V9.71855C6.81509 9.91205 6.74266 10.6128 7.4674 10.8788C7.75714 10.9998 7.99872 10.903 8.21643 10.7577C8.28886 10.7095 8.28886 10.7334 8.28886 10.782C8.26458 10.9512 8.28886 11.3378 8.84446 11.5552C9.25518 11.7244 9.49677 11.5552 9.64163 11.4103C9.71407 11.3378 9.73835 11.3621 9.73835 11.4585C9.76263 11.9661 10.1972 12.377 10.7047 12.377C11.2121 12.377 11.671 11.9418 11.671 11.4103C11.671 10.8788 11.236 10.4436 10.7047 10.4436H10.7043Z" fill="white"/>
<path d="M17.6847 8.26656C16.5974 7.32413 14.0849 5.12475 13.3844 4.61711C12.9979 4.32725 12.7321 4.15804 12.4905 4.10946C12.3938 4.08517 12.2489 4.037 12.0555 4.037C11.8863 4.037 11.6929 4.06129 11.4999 4.13375C11.0649 4.27868 10.6303 4.61711 10.1953 4.95553L10.171 4.97982C9.78455 5.29396 9.37382 5.6081 9.0598 5.68057C8.91494 5.70486 8.79394 5.72874 8.64908 5.72874C8.31078 5.72874 7.99676 5.63199 7.87618 5.48706C7.8519 5.46277 7.87618 5.4146 7.92433 5.36602L8.89066 4.32685C9.63968 3.57753 10.3401 2.87678 11.9831 2.82821H12.0555C13.0704 2.82821 14.0849 3.28727 14.2058 3.33585C15.1722 3.79492 16.1385 4.03659 17.1291 4.03659C18.1197 4.03659 19.2309 3.77063 20.3425 3.26339C20.2215 3.16664 20.0766 3.046 19.9561 2.94925C18.9654 3.38443 18.0473 3.57753 17.1295 3.57753C16.2117 3.57753 15.2936 3.36014 14.3993 2.92496C14.3511 2.90067 13.2395 2.36914 12.0559 2.36914H11.9592C10.5821 2.39343 9.80883 2.87678 9.30179 3.31156C8.79435 3.31156 8.35974 3.45649 7.97289 3.55324C7.63459 3.64999 7.32058 3.72245 7.03084 3.72245H6.66827C6.32997 3.72245 4.63891 3.31156 3.31001 2.78003C3.16514 2.87678 3.04415 2.97354 2.89928 3.06988C4.30061 3.64999 6.01596 4.08517 6.54728 4.13335C6.69214 4.13335 6.86129 4.15763 7.03044 4.15763C7.39301 4.15763 7.7309 4.06088 8.09348 3.96413C8.31078 3.91596 8.52849 3.84309 8.74579 3.79492L8.55236 3.98842L7.58604 5.05188C7.5136 5.12434 7.34445 5.34173 7.44117 5.58341C7.48932 5.68016 7.58604 5.77691 7.70703 5.87326C7.94861 6.01819 8.35934 6.13923 8.74579 6.13923C8.89066 6.13923 9.03552 6.11494 9.15652 6.09105C9.56725 5.9943 10.0023 5.65587 10.4369 5.29356C10.7994 5.00371 11.3065 4.64099 11.6933 4.52035C11.8143 4.49606 11.9349 4.47218 12.0559 4.47218H12.1526C12.4185 4.49647 12.6601 4.59322 13.1189 4.93125C13.9161 5.53564 17.4678 8.62927 17.4917 8.65316C17.4917 8.65316 17.709 8.84666 17.709 9.18469C17.709 9.3539 17.588 9.52312 17.4192 9.64375C17.2744 9.7405 17.1052 9.78868 16.9604 9.78868C16.7188 9.78868 16.5496 9.66764 16.5496 9.66764C16.5496 9.66764 15.3174 8.556 14.8824 8.16899C14.81 8.09653 14.7376 8.04795 14.6651 8.04795C14.617 8.04795 14.5927 8.07224 14.5684 8.09613C14.496 8.19288 14.5684 8.31351 14.6651 8.38598L16.0908 9.81216C16.0908 9.81216 16.2599 9.98137 16.2842 10.1988C16.2842 10.4404 16.1875 10.6339 15.9459 10.7789C15.7767 10.8999 15.6076 10.9481 15.4384 10.9481C15.2211 10.9481 15.0759 10.8513 15.0277 10.827L14.8104 10.6335C14.4478 10.2708 14.0614 9.88421 13.7717 9.66683C13.6992 9.61865 13.6268 9.54579 13.5543 9.54579C13.5301 9.54579 13.4819 9.54579 13.4576 9.59396C13.4334 9.61825 13.4095 9.69071 13.4819 9.81135C13.5062 9.85952 13.5543 9.88381 13.5543 9.88381L14.5931 11.044C14.5931 11.044 14.8104 11.31 14.6174 11.5274L14.5692 11.5756L14.4725 11.6723C14.3034 11.8172 14.0618 11.8415 13.9651 11.8415H13.8202C13.7235 11.8172 13.6511 11.7933 13.6029 11.7448C13.5548 11.6723 13.023 11.1647 12.588 10.8023C12.5399 10.7542 12.467 10.7056 12.3946 10.7056C12.3703 10.7056 12.3222 10.7299 12.2979 10.7538C12.2254 10.8505 12.346 10.9954 12.3946 11.0436L13.2885 12.0103C13.2885 12.0103 13.2885 12.0346 13.2642 12.0828C13.2399 12.131 13.1193 12.2277 12.8053 12.2763H12.6843C12.346 12.2763 12.0077 12.1071 11.8147 12.0103C11.8872 11.8411 11.9357 11.6476 11.9357 11.4545C11.9357 10.7295 11.3558 10.1494 10.6311 10.1494H10.5829C10.6072 9.81094 10.5587 9.18266 9.90635 8.9167C9.71292 8.84423 9.54378 8.79565 9.35075 8.79565C9.20589 8.79565 9.08489 8.81994 8.94002 8.86812C8.79516 8.60215 8.57745 8.40905 8.28771 8.3123C8.11857 8.26413 7.9737 8.23984 7.80455 8.23984C7.53869 8.23984 7.29711 8.3123 7.07981 8.48151C6.86736 8.2196 6.54728 8.0686 6.2102 8.07062C5.92046 8.07062 5.63032 8.19166 5.4373 8.38476C5.17144 8.16737 4.08452 7.49052 1.16127 6.81366C1.0164 6.78937 0.702384 6.69262 0.508957 6.62015C0.484678 6.76508 0.460803 6.93429 0.436523 7.10351C0.436523 7.10351 0.96784 7.22455 1.08883 7.24843C4.06065 7.901 5.05085 8.60175 5.22 8.72279C5.17184 8.86771 5.14756 9.01264 5.14756 9.15797C5.14756 9.78625 5.655 10.2696 6.25876 10.2696C6.33119 10.2696 6.40362 10.2696 6.47606 10.2453C6.57277 10.7044 6.86251 11.0428 7.32179 11.212C7.46666 11.2602 7.58766 11.2845 7.70824 11.2845C7.78068 11.2845 7.87739 11.2845 7.9741 11.2602C8.04654 11.4776 8.23996 11.7436 8.67457 11.9128C8.81944 11.9852 8.9643 12.0095 9.10958 12.0095C9.23057 12.0095 9.35116 11.9852 9.44787 11.9371C9.6413 12.4204 10.1245 12.7588 10.6558 12.7588C11.0184 12.7588 11.3562 12.6139 11.5978 12.3479C11.8151 12.469 12.2501 12.6864 12.709 12.6864H12.8782C13.337 12.6382 13.5305 12.4447 13.6272 12.3237C13.6515 12.2994 13.6515 12.2755 13.6753 12.2512C13.7721 12.2755 13.8926 12.2994 14.0379 12.2994C14.2795 12.2994 14.5211 12.2269 14.7627 12.0334C15.0042 11.8642 15.1734 11.6225 15.1734 11.4051C15.2458 11.4294 15.3425 11.4294 15.415 11.4294C15.6566 11.4294 15.9224 11.3569 16.164 11.1877C16.6229 10.8979 16.6953 10.487 16.6953 10.2453C16.7677 10.2696 16.8645 10.2696 16.9369 10.2696C17.1785 10.2696 17.4201 10.1971 17.6374 10.0522C17.9271 9.85871 18.0962 9.59315 18.1205 9.27901C18.1448 9.06162 18.0724 8.84383 17.9757 8.65073C18.7486 8.3123 20.4882 7.68402 22.5661 7.20066C22.5661 7.03145 22.5418 6.88652 22.4937 6.71731C20.0054 7.24884 18.1448 8.04674 17.6859 8.26413L17.6847 8.26656ZM10.7027 12.303C10.2196 12.303 9.83311 11.9164 9.80883 11.4331C9.80883 11.3849 9.80883 11.2881 9.71211 11.2881C9.66396 11.2881 9.63968 11.3124 9.59112 11.3363C9.49441 11.4331 9.34954 11.5298 9.15611 11.5298C9.0594 11.5298 8.96269 11.5055 8.86638 11.4573C8.35893 11.24 8.33506 10.9015 8.35893 10.7566C8.35893 10.7084 8.35893 10.6841 8.33465 10.6599L8.31038 10.6356H8.2861C8.26182 10.6356 8.23794 10.6356 8.18938 10.6837C8.04451 10.7805 7.89965 10.8287 7.75437 10.8287C7.68194 10.8287 7.58523 10.8044 7.51279 10.7805C6.8362 10.5145 6.88476 9.88624 6.93292 9.69274C6.93292 9.64456 6.93292 9.62027 6.90864 9.59598L6.86048 9.54781L6.81233 9.59598C6.66746 9.71702 6.49831 9.78949 6.32917 9.78949C5.94272 9.78949 5.6287 9.47535 5.6287 9.08874C5.6287 8.70214 5.94272 8.388 6.32917 8.388C6.66746 8.388 6.98148 8.65397 7.02963 8.9924L7.05391 9.1859L7.15062 9.01669C7.15062 8.9924 7.44036 8.55762 7.97208 8.58151C8.06879 8.58151 8.16551 8.60579 8.2861 8.62968C8.69683 8.75072 8.76926 9.13732 8.76926 9.28225C8.76926 9.379 8.84169 9.379 8.84169 9.379C8.86597 9.379 8.91413 9.35471 8.91413 9.33083C8.98656 9.25836 9.15571 9.11344 9.42157 9.11344C9.54256 9.11344 9.66315 9.13773 9.80802 9.21019C10.4603 9.50004 10.1706 10.3218 10.1706 10.3461C10.1224 10.491 10.0982 10.5396 10.1706 10.5878H10.2187C10.243 10.5878 10.2912 10.5878 10.3397 10.5635C10.4365 10.5392 10.557 10.491 10.678 10.491C11.1612 10.491 11.5719 10.9019 11.5719 11.3853C11.5962 11.9168 11.1855 12.3038 10.7023 12.3038L10.7027 12.303Z" fill="#2D3277"/>
</svg>
