<svg width="25" height="20" viewBox="0 0 25 20" fill="none" xmlns="http://www.w3.org/2000/svg">
<path d="M3.65047 1H2.72056C1.76997 1 1.00537 1.76977 1.00537 2.71518V17.3201C1.00537 18.3275 1.82163 19.1386 2.82388 19.1386H22.2437C23.2098 19.1386 23.995 18.3533 23.995 17.3872V14.4373" stroke="#FBFDFF" stroke-width="0.7" stroke-linecap="round" stroke-linejoin="round"/>
<path d="M5.7168 1H22.3623C23.2664 1 24 1.7336 24 2.63769V11.5236" stroke="#FBFDFF" stroke-width="0.7" stroke-linecap="round" stroke-linejoin="round"/>
<path d="M1 6.83691H24" stroke="#FBFDFF" stroke-width="0.7" stroke-linecap="round" stroke-linejoin="round"/>
<path d="M3.73789 4.72968C4.20581 4.72968 4.58514 4.35035 4.58514 3.88242C4.58514 3.41449 4.20581 3.03516 3.73789 3.03516C3.26996 3.03516 2.89062 3.41449 2.89062 3.88242C2.89062 4.35035 3.26996 4.72968 3.73789 4.72968Z" fill="#FBFDFF"/>
<path d="M6.37265 4.72968C6.84058 4.72968 7.21991 4.35035 7.21991 3.88242C7.21991 3.41449 6.84058 3.03516 6.37265 3.03516C5.90472 3.03516 5.52539 3.41449 5.52539 3.88242C5.52539 4.35035 5.90472 4.72968 6.37265 4.72968Z" fill="#FBFDFF"/>
<path d="M9.00253 4.72968C9.47046 4.72968 9.84979 4.35035 9.84979 3.88242C9.84979 3.41449 9.47046 3.03516 9.00253 3.03516C8.5346 3.03516 8.15527 3.41449 8.15527 3.88242C8.15527 4.35035 8.5346 4.72968 9.00253 4.72968Z" fill="#FBFDFF"/>
<path d="M13.5747 10.7852H21.1432" stroke="#FBFDFF" stroke-width="0.7" stroke-linecap="round" stroke-linejoin="round"/>
<path d="M13.5747 15.0518H15.8737" stroke="#FBFDFF" stroke-width="0.7" stroke-linecap="round" stroke-linejoin="round"/>
<path d="M8.9045 9.42188H6.1819C4.83233 9.42188 3.73828 10.5159 3.73828 11.8655V13.9681C3.73828 15.3177 4.83233 16.4118 6.1819 16.4118H8.9045C10.2541 16.4118 11.3481 15.3177 11.3481 13.9681V11.8655C11.3481 10.5159 10.2541 9.42188 8.9045 9.42188Z" stroke="#FBFDFF" stroke-width="0.7" stroke-linecap="round" stroke-linejoin="round"/>
</svg>
