<svg width="23" height="22" viewBox="0 0 23 22" fill="none" xmlns="http://www.w3.org/2000/svg">
<path d="M1 6.70565V4.45658C1 2.54516 2.55088 1 4.46231 1H18.9353C20.5492 1 21.854 2.31053 21.854 3.91864V13.7791C21.854 15.2956 20.6293 16.5317 19.107 16.5317H9.51556C8.17642 16.5317 6.87734 16.9953 5.83578 17.8423L1.7783 21.1386C1.46927 21.3961 1 21.1729 1 20.7723V9.16074" stroke="#43475F" stroke-width="1.2" stroke-linecap="round" stroke-linejoin="round"/>
<path d="M10.9749 11.2145C10.9749 10.482 11.5472 9.73802 12.2111 9.46333C14.9237 8.34738 14.8493 3.7634 11.2439 3.75195C10.2882 3.75195 9.25808 4.09532 8.7373 5.14832" stroke="#43475F" stroke-width="1.2" stroke-linecap="round" stroke-linejoin="round"/>
<path d="M11.0151 14.0244C11.4164 14.0244 11.7417 13.6991 11.7417 13.2979C11.7417 12.8966 11.4164 12.5713 11.0151 12.5713C10.6139 12.5713 10.2886 12.8966 10.2886 13.2979C10.2886 13.6991 10.6139 14.0244 11.0151 14.0244Z" fill="#43475F"/>
</svg>
