<svg width="30" height="20" viewBox="0 0 30 20" fill="none" xmlns="http://www.w3.org/2000/svg">
<path d="M8.8314 15.793H5.78931" stroke="#43475F" stroke-width="1.2" stroke-linecap="round" stroke-linejoin="round"/>
<path d="M2.74707 1H18.8533C19.8732 1 20.7069 1.83369 20.7069 2.85363V5.86912C20.7069 6.88906 21.5406 7.72275 22.5606 7.72275H26.5782C27.1193 7.72275 27.6337 7.96222 27.9796 8.37019L28.8487 9.38127C29.1414 9.71829 29.301 10.144 29.301 10.5875V13.94C29.301 14.5785 28.9818 15.1373 28.4851 15.4743" stroke="#43475F" stroke-width="1.2" stroke-linecap="round" stroke-linejoin="round"/>
<path d="M20.6005 15.793H14.6848" stroke="#43475F" stroke-width="1.2" stroke-linecap="round" stroke-linejoin="round"/>
<path d="M12.3702 4.51172H6.29492" stroke="#43475F" stroke-width="1.2" stroke-linecap="round" stroke-linejoin="round"/>
<path d="M3.95321 4.51172H3.45654" stroke="#43475F" stroke-width="1.2" stroke-linecap="round" stroke-linejoin="round"/>
<path d="M12.3702 8.06836H10.3037" stroke="#43475F" stroke-width="1.2" stroke-linecap="round" stroke-linejoin="round"/>
<path d="M7.83805 8.06836H1" stroke="#43475F" stroke-width="1.2" stroke-linecap="round" stroke-linejoin="round"/>
<path d="M8.98205 11.625H4.99097" stroke="#43475F" stroke-width="1.2" stroke-linecap="round" stroke-linejoin="round"/>
<path d="M21.0173 2.8623H23.7934C24.4851 2.8623 25.1237 3.25254 25.443 3.86451L27.4385 7.72255" stroke="#43475F" stroke-width="1.2" stroke-linecap="round" stroke-linejoin="round"/>
<path d="M11.7581 18.7208C13.3745 18.7208 14.6849 17.4104 14.6849 15.794C14.6849 14.1776 13.3745 12.8672 11.7581 12.8672C10.1417 12.8672 8.8313 14.1776 8.8313 15.794C8.8313 17.4104 10.1417 18.7208 11.7581 18.7208Z" stroke="#43475F" stroke-width="1.2" stroke-linecap="round" stroke-linejoin="round"/>
<path d="M23.5362 18.7208C25.1526 18.7208 26.463 17.4104 26.463 15.794C26.463 14.1776 25.1526 12.8672 23.5362 12.8672C21.9197 12.8672 20.6094 14.1776 20.6094 15.794C20.6094 17.4104 21.9197 18.7208 23.5362 18.7208Z" stroke="#43475F" stroke-width="1.2" stroke-linecap="round" stroke-linejoin="round"/>
</svg>
