<svg width="22" height="17" viewBox="0 0 22 17" fill="none" xmlns="http://www.w3.org/2000/svg">
<path d="M6.70996 8.1485C6.70996 9.93036 7.36238 11.5649 8.45675 12.8136C9.76859 14.3289 11.6978 15.283 13.8514 15.283C17.794 15.283 20.9999 12.091 20.9999 8.14148C20.9999 4.19192 17.794 1 13.8514 1C11.7258 1 9.93696 1.79272 8.63914 3.27994" stroke="#404040" stroke-width="2" stroke-linecap="square" stroke-linejoin="round"/>
<path d="M11.4386 7.91583C11.3825 5.93052 10.211 4.23284 8.5203 3.41908C7.8258 3.06832 7.04711 2.87891 6.21931 2.87891C3.33606 2.87891 1 5.22199 1 8.09822C1 10.9745 3.34308 13.3175 6.21931 13.3175C7.01905 13.3175 7.65743 13.1983 8.33791 12.8615" stroke="#404040" stroke-width="2" stroke-linecap="square" stroke-linejoin="round"/>
</svg>
