<svg width="21" height="21" viewBox="0 0 21 21" fill="none" xmlns="http://www.w3.org/2000/svg">
<path d="M0 10.3774C0 4.6461 4.6461 0 10.3774 0V0C16.1086 0 20.7547 4.6461 20.7547 10.3774V10.3774C20.7547 16.1086 16.1086 20.7547 10.3774 20.7547V20.7547C4.6461 20.7547 0 16.1086 0 10.3774V10.3774Z" fill="#6097FF"/>
<path d="M13.7146 14.9126C8.27037 15.728 4.9812 13.1755 4.9812 8.84473" stroke="#F8F9FA" stroke-width="1.2" stroke-linecap="round" stroke-linejoin="round"/>
<path d="M11.4122 11.877L13.7146 14.5254C13.9133 14.755 13.8894 15.1045 13.6598 15.3032L10.9668 17.6467" stroke="#F8F9FA" stroke-width="1.2" stroke-linecap="round" stroke-linejoin="round"/>
<path d="M7.04028 5.80532C12.4845 4.98988 15.7737 7.54241 15.7737 11.8732" stroke="#F8F9FA" stroke-width="1.2" stroke-linecap="round" stroke-linejoin="round"/>
<path d="M9.34273 8.84104L7.04031 6.19258C6.84159 5.96302 6.86558 5.61354 7.09513 5.41482L9.78814 3.07129" stroke="#F8F9FA" stroke-width="1.2" stroke-linecap="round" stroke-linejoin="round"/>
</svg>
